<svg width="30" height="30" viewBox="0 0 30 30" fill="none" xmlns="http://www.w3.org/2000/svg">
<path d="M14.5863 16.289L8.62989 22.2455C8.40703 22.4684 8.12338 22.5798 7.77896 22.5798C7.43454 22.5798 7.1509 22.4684 6.92804 22.2455C6.70518 22.0226 6.59375 21.739 6.59375 21.3946C6.59375 21.0502 6.70518 20.7665 6.92804 20.5437L12.8845 14.5872L6.92804 8.63074C6.70518 8.40788 6.59375 8.12424 6.59375 7.77982C6.59375 7.4354 6.70518 7.15176 6.92804 6.9289C7.1509 6.70603 7.43454 6.5946 7.77896 6.5946C8.12338 6.5946 8.40703 6.70603 8.62989 6.9289L14.5863 12.8854L20.5428 6.9289C20.7657 6.70603 21.0493 6.5946 21.3937 6.5946C21.7381 6.5946 22.0218 6.70603 22.2446 6.9289C22.4675 7.15176 22.5789 7.4354 22.5789 7.77982C22.5789 8.12424 22.4675 8.40788 22.2446 8.63074L16.2882 14.5872L22.2446 20.5437C22.4675 20.7665 22.5789 21.0502 22.5789 21.3946C22.5789 21.739 22.4675 22.0226 22.2446 22.2455C22.0218 22.4684 21.7381 22.5798 21.3937 22.5798C21.0493 22.5798 20.7657 22.4684 20.5428 22.2455L14.5863 16.289Z" fill="white"/>
</svg>
