<svg width="32" height="24" viewBox="0 0 32 24" fill="none" xmlns="http://www.w3.org/2000/svg">
<path d="M9.8 12C12.7983 12 15.225 9.31607 15.225 6C15.225 2.68393 12.7983 0 9.8 0C6.80172 0 4.375 2.68393 4.375 6C4.375 9.31607 6.80172 12 9.8 12ZM13.52 13.7143H13.118C12.1105 14.25 10.9916 14.5714 9.8 14.5714C8.60844 14.5714 7.49437 14.25 6.48203 13.7143H6.08C2.99937 13.7143 0.5 16.4786 0.5 19.8857V21.4286C0.5 22.8482 1.54141 24 2.825 24H16.775C18.0586 24 19.1 22.8482 19.1 21.4286V19.8857C19.1 16.4786 16.6006 13.7143 13.52 13.7143ZM23.75 12C26.3172 12 28.4 9.69643 28.4 6.85714C28.4 4.01786 26.3172 1.71429 23.75 1.71429C21.1828 1.71429 19.1 4.01786 19.1 6.85714C19.1 9.69643 21.1828 12 23.75 12ZM26.075 13.7143H25.8909C25.2177 13.9714 24.5056 14.1429 23.75 14.1429C22.9944 14.1429 22.2823 13.9714 21.6091 13.7143H21.425C20.4369 13.7143 19.5262 14.0304 18.727 14.5393C19.9089 15.9482 20.65 17.8179 20.65 19.8857V21.9429C20.65 22.0607 20.6258 22.1732 20.6209 22.2857H29.175C30.4586 22.2857 31.5 21.1339 31.5 19.7143C31.5 16.3982 29.0733 13.7143 26.075 13.7143Z" fill="white"/>
</svg>
