<svg width="41" height="40" viewBox="0 0 41 40" fill="none" xmlns="http://www.w3.org/2000/svg">
<path fill-rule="evenodd" clip-rule="evenodd" d="M13.8375 2.66366C15.0537 1.40908 16.599 0.548902 18.2831 0.18904C19.9671 -0.170822 21.7164 -0.0146534 23.3155 0.638317C24.9147 1.29129 26.2938 2.41255 27.2831 3.86404C28.2725 5.31552 28.8288 7.03387 28.8837 8.80747C31.0697 8.15734 33.4149 8.40721 35.426 9.50454C37.4371 10.6019 38.9575 12.4611 39.6674 14.6914C40.3701 16.9146 40.2074 19.3356 39.2138 21.4373C38.2202 23.5391 36.4734 25.1598 34.3428 25.957C35.6059 27.8953 36.0873 30.2652 35.6848 32.5637C35.2824 34.8622 34.0278 36.9085 32.1872 38.2682C30.3432 39.6423 28.0572 40.2306 25.8038 39.911C23.5504 39.5915 21.503 38.3885 20.0867 36.5521C19.2047 37.697 18.069 38.6064 16.7752 39.2038C15.4815 39.8012 14.0675 40.0691 12.6524 39.9848C11.2374 39.9006 9.86265 39.4667 8.64406 38.7197C7.42547 37.9727 6.3987 36.9345 5.65022 35.6925C4.76963 34.2252 4.31751 32.5272 4.34797 30.8016C4.37843 29.0761 4.89018 27.3961 5.82198 25.9629C3.69657 25.1516 1.95827 23.5225 0.971772 21.4174C-0.0147248 19.3123 -0.172742 16.8948 0.530872 14.6721C1.23449 12.4494 2.74505 10.5943 4.74563 9.49587C6.74621 8.39748 9.08133 8.14123 11.2611 8.78089C11.3391 6.47983 12.2597 4.29488 13.8375 2.66662V2.66366ZM26.3846 20.8233C26.3846 24.3974 23.5591 27.2921 20.0724 27.2921C18.4045 27.296 16.8033 26.6171 15.6199 25.4044C14.4366 24.1917 13.7677 22.5442 13.7602 20.8233C13.7602 17.2493 16.5856 14.3546 20.0724 14.3546C23.5591 14.3546 26.3846 17.2493 26.3846 20.8233Z" fill="#F4A38A"/>
</svg>
