<svg width="18" height="18" viewBox="0 0 18 18" fill="none" xmlns="http://www.w3.org/2000/svg">
<path fill-rule="evenodd" clip-rule="evenodd" d="M5.99688 1.60042C6.52393 1.05677 7.19356 0.684024 7.92331 0.528084C8.65307 0.372144 9.4111 0.439817 10.1041 0.722771C10.797 1.00572 11.3946 1.4916 11.8233 2.12058C12.2521 2.74956 12.4931 3.49418 12.5169 4.26274C13.4642 3.98101 14.4804 4.08929 15.3519 4.5648C16.2234 5.04031 16.8822 5.846 17.1898 6.81242C17.4943 7.77582 17.4239 8.82492 16.9933 9.73568C16.5627 10.6464 15.8058 11.3488 14.8825 11.6942C15.4299 12.5341 15.6385 13.5611 15.4641 14.5571C15.2897 15.5531 14.746 16.4398 13.9484 17.0291C13.1494 17.6245 12.1587 17.8794 11.1823 17.741C10.2058 17.6025 9.3186 17.0812 8.70488 16.2854C8.32269 16.7815 7.83056 17.1756 7.26992 17.4345C6.70928 17.6934 6.09657 17.8094 5.48337 17.7729C4.87018 17.7364 4.27447 17.5484 3.74641 17.2247C3.21836 16.901 2.77342 16.4511 2.44908 15.9129C2.06749 15.2771 1.87157 14.5413 1.88477 13.7935C1.89797 13.0458 2.11973 12.3178 2.52351 11.6967C1.6025 11.3452 0.849234 10.6393 0.421752 9.72706C-0.00572969 8.81485 -0.074204 7.76726 0.230696 6.80409C0.535595 5.84092 1.19017 5.03701 2.05709 4.56104C2.92401 4.08508 3.93589 3.97404 4.88044 4.25122C4.91424 3.25409 5.31321 2.30728 5.99688 1.6017V1.60042ZM11.434 9.46962C11.434 11.0184 10.2096 12.2727 8.69867 12.2727C7.97595 12.2744 7.28208 11.9803 6.76929 11.4548C6.2565 10.9293 5.96667 10.2153 5.96339 9.46962C5.96339 7.92087 7.18776 6.6665 8.69867 6.6665C10.2096 6.6665 11.434 7.92087 11.434 9.46962Z" fill="#F4A38A"/>
</svg>
