<svg width="28" height="25" viewBox="0 0 28 25" fill="none" xmlns="http://www.w3.org/2000/svg">
<path d="M15.2503 23.25V20.75H20.2503V23.25C20.2503 23.6042 20.1303 23.9013 19.8903 24.1413C19.6503 24.3813 19.3537 24.5008 19.0003 24.5H16.5003C16.1462 24.5 15.8495 24.38 15.6103 24.14C15.3712 23.9 15.2512 23.6033 15.2503 23.25ZM7.75033 23.25V19.5H1.28158C0.781576 19.5 0.416992 19.2813 0.187826 18.8438C-0.0413412 18.4063 -0.0205078 17.9792 0.250326 17.5625L3.81283 12C3.33366 12 2.97449 11.7867 2.73533 11.36C2.49616 10.9333 2.52199 10.5113 2.81283 10.0938L9.21908 0.968761C9.34408 0.802094 9.50033 0.672094 9.68783 0.578761C9.87533 0.485427 10.0628 0.438344 10.2503 0.437511C10.4378 0.436678 10.6253 0.483761 10.8128 0.578761C11.0003 0.673761 11.1566 0.803761 11.2816 0.968761L17.6878 10.0938C17.9795 10.5104 18.0057 10.9325 17.7666 11.36C17.5274 11.7875 17.1678 12.0008 16.6878 12L20.2816 17.5625C20.5524 17.9792 20.5732 18.4063 20.3441 18.8438C20.1149 19.2813 19.7503 19.5 19.2503 19.5H12.7503V23.25C12.7503 23.6042 12.6303 23.9013 12.3903 24.1413C12.1503 24.3813 11.8537 24.5008 11.5003 24.5H9.00033C8.64616 24.5 8.34949 24.38 8.11033 24.14C7.87116 23.9 7.75116 23.6033 7.75033 23.25ZM23.0628 19.5L19.0003 13.25C19.5003 13.25 19.8703 13.0263 20.1103 12.5788C20.3503 12.1313 20.3241 11.6988 20.0316 11.2813L14.7816 3.78126L16.7191 0.968761C16.8441 0.802094 17.0003 0.672094 17.1878 0.578761C17.3753 0.485427 17.5628 0.438344 17.7503 0.437511C17.9378 0.436678 18.1253 0.483761 18.3128 0.578761C18.5003 0.673761 18.6566 0.803761 18.7816 0.968761L25.1878 10.0938C25.4795 10.5104 25.5057 10.9325 25.2666 11.36C25.0274 11.7875 24.6678 12.0008 24.1878 12L27.7503 17.5625C28.0212 17.9792 28.042 18.4063 27.8128 18.8438C27.5837 19.2813 27.2191 19.5 26.7191 19.5H23.0628Z" fill="white"/>
</svg>
