<svg width="32" height="32" viewBox="0 0 32 32" fill="none" xmlns="http://www.w3.org/2000/svg">
<g clip-path="url(#clip0_79_1542)">
<path fill-rule="evenodd" clip-rule="evenodd" d="M10.5869 17.4132C10.2123 17.0382 10.002 16.5299 10.002 15.9999C10.002 15.4699 10.2123 14.9615 10.5869 14.5865L18.1282 7.04253C18.5034 6.66752 19.0122 6.45691 19.5427 6.45703C19.8053 6.45709 20.0654 6.50889 20.3081 6.60947C20.5507 6.71004 20.7712 6.85742 20.9569 7.0432C21.1425 7.22898 21.2898 7.44951 21.3903 7.6922C21.4908 7.9349 21.5424 8.19501 21.5424 8.45767C21.5423 8.72034 21.4905 8.98042 21.3899 9.22307C21.2894 9.46572 21.142 9.68618 20.9562 9.87187L14.8295 15.9999L20.9575 22.1279C21.1486 22.3123 21.3011 22.5329 21.406 22.7768C21.511 23.0208 21.5663 23.2832 21.5687 23.5488C21.5711 23.8143 21.5206 24.0777 21.4202 24.3236C21.3197 24.5694 21.1713 24.7928 20.9837 24.9806C20.796 25.1685 20.5727 25.3171 20.327 25.4178C20.0812 25.5185 19.8179 25.5692 19.5523 25.567C19.2868 25.5648 19.0243 25.5098 18.7803 25.4051C18.5362 25.3004 18.3154 25.1481 18.1309 24.9572L10.5842 17.4132H10.5869Z" fill="black"/>
</g>
<defs>
<clipPath id="clip0_79_1542">
<rect width="32" height="32" fill="white"/>
</clipPath>
</defs>
</svg>
