<svg width="12" height="20" viewBox="0 0 12 20" fill="none" xmlns="http://www.w3.org/2000/svg">
<path fill-rule="evenodd" clip-rule="evenodd" d="M0.58686 11.4134C0.212325 11.0384 0.00195313 10.5301 0.00195312 10.0001C0.00195312 9.47011 0.212325 8.96178 0.58686 8.58678L8.12819 1.04278C8.50339 0.667762 9.01219 0.45715 9.54267 0.457275C9.80533 0.457337 10.0654 0.509134 10.3081 0.609709C10.5507 0.710285 10.7712 0.857668 10.9569 1.04344C11.1425 1.22922 11.2898 1.44975 11.3903 1.69245C11.4908 1.93514 11.5424 2.19525 11.5424 2.45792C11.5423 2.72058 11.4905 2.98066 11.3899 3.22331C11.2894 3.46596 11.142 3.68642 10.9562 3.87211L4.82953 10.0001L10.9575 16.1281C11.1486 16.3125 11.3011 16.5331 11.406 16.7771C11.511 17.0211 11.5663 17.2835 11.5687 17.549C11.5711 17.8146 11.5206 18.078 11.4202 18.3238C11.3197 18.5696 11.1713 18.793 10.9837 18.9809C10.796 19.1688 10.5727 19.3174 10.327 19.418C10.0812 19.5187 9.8179 19.5694 9.55234 19.5673C9.28678 19.5651 9.02432 19.51 8.78026 19.4053C8.53621 19.3006 8.31544 19.1484 8.13086 18.9574L0.584194 11.4134H0.58686Z" fill="black"/>
</svg>
