<svg width="17" height="21" viewBox="0 0 17 21" fill="none" xmlns="http://www.w3.org/2000/svg">
<path d="M2.0625 21C1.5125 21 1.04183 20.8043 0.6505 20.413C0.259166 20.0217 0.0631667 19.5507 0.0625 19V9C0.0625 8.45 0.2585 7.97933 0.6505 7.588C1.0425 7.19667 1.51317 7.00067 2.0625 7H3.0625V5C3.0625 3.61667 3.55017 2.43767 4.5255 1.463C5.50083 0.488334 6.67983 0.000667349 8.0625 6.82594e-07C9.44517 -0.000665984 10.6245 0.487001 11.6005 1.463C12.5765 2.439 13.0638 3.618 13.0625 5V7H14.0625C14.6125 7 15.0835 7.196 15.4755 7.588C15.8675 7.98 16.0632 8.45067 16.0625 9V19C16.0625 19.55 15.8668 20.021 15.4755 20.413C15.0842 20.805 14.6132 21.0007 14.0625 21H2.0625ZM8.0625 16C8.6125 16 9.0835 15.8043 9.4755 15.413C9.8675 15.0217 10.0632 14.5507 10.0625 14C10.0618 13.4493 9.86617 12.9787 9.4755 12.588C9.08483 12.1973 8.61383 12.0013 8.0625 12C7.51117 11.9987 7.0405 12.1947 6.6505 12.588C6.2605 12.9813 6.0645 13.452 6.0625 14C6.0605 14.548 6.2565 15.019 6.6505 15.413C7.0445 15.807 7.51517 16.0027 8.0625 16ZM5.0625 7H11.0625V5C11.0625 4.16667 10.7708 3.45833 10.1875 2.875C9.60417 2.29167 8.89583 2 8.0625 2C7.22917 2 6.52083 2.29167 5.9375 2.875C5.35417 3.45833 5.0625 4.16667 5.0625 5V7Z" fill="black"/>
</svg>
