<svg width="8" height="14" viewBox="0 0 8 14" fill="none" xmlns="http://www.w3.org/2000/svg">
<path fill-rule="evenodd" clip-rule="evenodd" d="M7.22344 6.09519C7.46318 6.33523 7.59784 6.66061 7.59784 6.99986C7.59784 7.3391 7.46318 7.66448 7.22344 7.90452L2.39631 12.7334C2.15616 12.9734 1.83048 13.1082 1.49092 13.1081C1.15137 13.108 0.825756 12.9731 0.585712 12.7329C0.345668 12.4928 0.210858 12.1671 0.210938 11.8275C0.211018 11.488 0.345982 11.1624 0.586139 10.9223L4.50861 6.99986L0.586139 3.07738C0.352827 2.83605 0.223638 2.51273 0.226395 2.17707C0.229153 1.84141 0.363636 1.52026 0.600881 1.28279C0.838126 1.04532 1.15915 0.910537 1.49481 0.907463C1.83047 0.904389 2.15391 1.03327 2.39546 1.26636L7.2243 6.09434L7.22344 6.09519Z" fill="black"/>
</svg>
