<svg width="270" height="123" viewBox="0 0 270 123" fill="none" xmlns="http://www.w3.org/2000/svg">
<path d="M260.867 6.6665C257.934 9.59983 250.467 14.7998 244.201 17.9998C229.534 25.5998 226.067 28.2665 222.201 34.7998C219.134 39.8665 219.001 41.4665 219.267 56.7998C219.534 71.3332 219.267 74.1332 216.734 79.5998C215.134 82.9332 212.734 86.3998 211.267 87.1998C209.534 88.1332 191.934 88.7998 161.401 88.9332L114.334 89.3332V96.6665V104L134.601 104.4L154.867 104.8L155.267 113.733L155.667 122.667H164.334H173.001L173.401 113.867L173.801 104.933L190.067 104.533C214.734 103.733 218.601 100.4 222.067 76.6665C224.467 60.9332 227.267 55.0665 239.001 42.9332C248.601 32.7998 253.534 31.1998 245.134 40.9332C237.934 49.3332 231.267 59.4665 230.334 63.5998L229.401 67.3332L235.534 65.4665C257.001 58.9332 269.667 41.9998 269.667 19.4665C269.667 8.53316 268.601 0.533165 267.134 0.933167C266.734 0.933167 263.934 3.59983 260.867 6.6665Z" fill="#174B3C"/>
<path d="M147 13.8664C135.267 14.3997 126.467 15.3331 124.733 16.3997C121 18.3997 119 22.1331 119 26.5331V29.9997H152.867C175 29.9997 187.133 30.5331 187.667 31.3331C188.2 32.1331 187.533 34.2664 186.467 35.9997L184.333 39.3331H153.8C137 39.3331 122.333 39.7331 121.133 40.1331C119.4 40.7997 119 43.3331 119 54.2664C119 69.0664 120.6 73.7331 126.6 76.7997C131.667 79.3331 202.2 80.3997 205.133 77.8664C207.267 76.1331 207.533 69.5997 205.667 65.8664C204.333 63.4664 202.467 63.3331 172.333 63.3331H140.333L139.533 60.1331C139.133 58.2664 139.133 56.1331 139.667 55.4664C140.2 54.5331 149.933 53.9997 167.4 53.9997C191.933 53.9997 194.733 53.7331 198.733 51.3331C201.133 49.8664 203.667 47.0664 204.467 44.9331C206.333 40.3997 206.2 16.6664 204.333 14.7997C202.6 13.0664 175.533 12.6664 147 13.8664Z" fill="#174B3C"/>
<path d="M12.8673 17.2C12.4673 18.2666 12.334 21.3333 12.6006 24.1333L13.0006 29.3333L42.734 30C82.2007 30.9333 79.934 28.1333 74.2007 67.8666C73.134 75.2 72.4673 81.3333 72.734 81.6C73.934 82.6666 89.6673 82.5333 90.8673 81.3333C93.934 78.1333 99.134 31.8666 97.134 24.1333C96.6007 22.1333 95.134 19.4666 93.6673 18C91.134 15.4666 89.0007 15.3333 52.334 15.3333C20.4673 15.3333 13.4006 15.6 12.8673 17.2Z" fill="#174B3C"/>
<path d="M1.93378 89.8666C0.733782 90.5333 0.333782 93.1999 0.600448 97.4666L1.00045 104L51.9338 104.4C99.4005 104.667 103 104.533 104.067 102.4C105.8 99.0666 105 91.1999 102.867 89.8666C100.467 88.3999 4.20045 88.3999 1.93378 89.8666Z" fill="#174B3C"/>
</svg>
