<svg width="233" height="100" viewBox="0 0 233 100" fill="none" xmlns="http://www.w3.org/2000/svg">
<path d="M210.572 11.9531C208.763 13.9706 204.158 17.547 200.293 19.7479C191.247 24.9749 189.109 26.809 186.724 31.3024C184.833 34.7871 184.75 35.8876 184.915 46.4334C185.079 56.429 184.915 58.3548 183.352 62.1146C182.366 64.4072 180.885 66.7914 179.981 67.3417C178.912 67.9836 168.057 68.4421 149.225 68.5338L120.195 68.8089V73.8526V78.8962L132.695 79.1713L145.195 79.4464L145.442 85.5905L145.688 91.7346H151.034H156.379L156.626 85.6822L156.872 79.5381L166.905 79.263C182.119 78.7128 184.504 76.4202 186.642 60.0971C188.122 49.2762 189.849 45.2413 197.086 36.8963C203.007 29.9269 206.049 28.8264 200.869 35.5208C196.428 41.298 192.316 48.2675 191.74 51.1102L191.165 53.6779L194.948 52.3941C208.188 47.9006 216 36.2544 216 20.7566C216 13.2369 215.342 7.73478 214.437 8.00988C214.191 8.00988 212.464 9.84394 210.572 11.9531Z" fill="#174B3C"/>
<path d="M140.343 16.9051C133.106 17.2719 127.678 17.9138 126.609 18.6474C124.307 20.023 123.073 22.5906 123.073 25.6168V28.0011H143.961C157.612 28.0011 165.096 28.3679 165.425 28.9181C165.754 29.4683 165.342 30.9356 164.685 32.1277L163.369 34.4203H144.537C134.175 34.4203 125.129 34.6954 124.389 34.9705C123.32 35.429 123.073 37.1714 123.073 44.691C123.073 54.87 124.06 58.0796 127.761 60.1888C130.886 61.9312 174.388 62.6648 176.198 60.9224C177.513 59.7303 177.678 55.2369 176.526 52.6692C175.704 51.0185 174.553 50.9268 155.968 50.9268H136.231L135.738 48.726C135.491 47.4421 135.491 45.9749 135.82 45.5164C136.149 44.8744 142.152 44.5076 152.925 44.5076C168.056 44.5076 169.783 44.3242 172.25 42.6736C173.73 41.6648 175.293 39.7391 175.786 38.2718C176.938 35.1539 176.855 18.8308 175.704 17.547C174.635 16.3548 157.941 16.0797 140.343 16.9051Z" fill="#174B3C"/>
<path d="M57.6143 19.1974C57.3676 19.931 57.2854 22.0402 57.4498 23.9659L57.6965 27.5423L76.0351 28.0008C100.377 28.6428 98.9789 26.717 95.4427 54.0445C94.7848 59.0881 94.3737 63.3065 94.5381 63.4899C95.2783 64.2235 104.982 64.1318 105.722 63.3065C107.614 61.1056 110.821 29.2847 109.587 23.9659C109.258 22.5904 108.354 20.7563 107.449 19.7476C105.887 18.0052 104.571 17.9135 81.9561 17.9135C62.3017 17.9135 57.9432 18.0969 57.6143 19.1974Z" fill="#174B3C"/>
<path d="M50.8711 69.1758C50.1309 69.6344 49.8842 71.4684 50.0487 74.4029L50.2954 78.8964L81.7095 79.1715C110.985 79.3549 113.206 79.2632 113.864 77.7959C114.933 75.5033 114.439 70.0929 113.124 69.1758C111.643 68.1671 52.2691 68.1671 50.8711 69.1758Z" fill="#174B3C"/>
</svg>
